<?xml version="1.0" encoding="utf-8"?>
<!-- Generator: Adobe Illustrator 28.0.0, SVG Export Plug-In . SVG Version: 6.00 Build 0)  -->
<svg version="1.1" id="Layer_1" xmlns="http://www.w3.org/2000/svg" xmlns:xlink="http://www.w3.org/1999/xlink" x="0px" y="0px"
	 viewBox="0 0 593.1 163.1" style="enable-background:new 0 0 593.1 163.1;" xml:space="preserve">
<style type="text/css">
	.st0{fill:url(#SVGID_1_);}
	.st1{fill:#006E99;}
	.st2{fill:#464646;}
</style>
<linearGradient id="SVGID_1_" gradientUnits="userSpaceOnUse" x1="132.5128" y1="17.6369" x2="9.5253" y2="171.5289">
	<stop  offset="0" style="stop-color:#02A7C9"/>
	<stop  offset="1" style="stop-color:#006E99"/>
</linearGradient>
<path class="st0" d="M81.6,2C37.9,2,2.4,37.5,2.4,81.3v79.2h79.2c43.8,0,79.2-35.5,79.2-79.2C160.9,37.5,125.4,2,81.6,2z
	 M81.6,118.6c-20.6,0-37.3-16.7-37.3-37.3C44.3,60.7,61,44,81.6,44c20.6,0,37.3,16.7,37.3,37.3C118.9,101.9,102.2,118.6,81.6,118.6z
	"/>
<g>
	<path class="st1" d="M210.6,159.9h-16.9v-34.3h5v29.7h11.9V159.9z"/>
	<path class="st1" d="M244.8,159.9h-5.3l-3.8-10.1h-12.3l-3.8,10.1h-5.3l13-34.3h4.5L244.8,159.9z M234,145.2l-4.4-13.1l-4.4,13.1
		H234z"/>
	<path class="st1" d="M276.1,159.9h-4.4l-6.3-24l-6.3,24h-4.4l-9.6-34.3h5.2l6.6,25.8l6.7-25.8h3.7l6.6,25.7l6.7-25.7h5.1
		L276.1,159.9z"/>
	<path class="st1" d="M339.3,142.8c-0.2,10.1-7.8,17.7-17.7,17.7c-9.7,0-17.5-7.9-17.5-17.7c0-10,7.7-17.9,17.5-17.9
		c6.4,0,12.3,3.5,15.4,9.3h-5.8c-3.1-3.3-5.8-4.7-9.4-4.7c-7,0-12.6,6-12.6,13.3c0,7.2,5.8,13.2,12.7,13.2c2.8,0,5.8-1.1,8.1-3.1
		c1.9-1.6,2.6-2.7,3.7-5.5h-16v-4.6H339.3z"/>
	<path class="st1" d="M368.6,159.9h-6.3l-11.4-15.9v15.9h-5v-34.3h10.6c4.2,0,7,0.9,9.2,2.9c2,1.9,3.1,4.9,3.1,8.1
		c0,3.8-1.6,7-4.3,8.7c-1.7,1.1-2.7,1.4-5.5,1.9L368.6,159.9z M350.9,143.2h3.4c6.2,0,9.5-2.3,9.5-6.7c0-3.9-3-6.4-7.6-6.4h-5.3
		V143.2z"/>
	<path class="st1" d="M409.6,142.7c0,9.8-8,17.8-17.8,17.8c-9.9,0-17.8-8-17.8-17.8c0-9.9,7.9-17.8,17.8-17.8
		C401.7,124.9,409.6,132.8,409.6,142.7z M404.6,142.7c0-7.4-5.6-13.2-12.8-13.2c-7.2,0-12.8,5.9-12.8,13.2c0,7.5,5.6,13.3,12.8,13.3
		C399,156,404.6,150.2,404.6,142.7z"/>
	<path class="st1" d="M438.9,125.6v23.8c0,3.3-0.9,5.6-3.1,7.7c-2.3,2.3-5.2,3.5-8.4,3.5c-6.4,0-11.4-4.9-11.4-11.2v-23.8h5v23.1
		c0,4.5,2.5,7.3,6.5,7.3c1.9,0,3.5-0.7,4.8-2c1.3-1.4,1.7-2.5,1.7-5.3v-23.1H438.9z"/>
	<path class="st1" d="M451.9,146.3v13.5h-5v-34.3h11.9c5.9,0,10.1,4.3,10.1,10.2c0,2.9-0.9,5.1-2.7,7.1c-2.4,2.5-4.8,3.4-9.4,3.4
		H451.9z M451.9,141.8h5.1c4.3,0,6.8-2.3,6.8-6c0-3.7-2.4-5.6-6.9-5.6h-5.1V141.8z"/>
</g>
<g>
	<path class="st2" d="M193.7,104.6V40.5h16.2c10.8,0,14.3,1,18.8,5.2c3.9,3.7,6,8.5,6,14.2c0,8.4-4.7,16.2-11.3,18.8
		c-3.6,1.3-4.9,1.5-13.7,1.5h-4v24.4H193.7z M205.7,69.1h3.8c9.3,0,13.5-2.8,13.5-9c0-6.1-3.6-8.4-13-8.4h-4.2V69.1z"/>
	<path class="st2" d="M345.2,86.8h13.7c-4.8,11.4-16.7,19-29.6,19c-18.3,0-33.5-15.2-33.5-33.6c0-18.1,15-33.1,33.2-33.1
		c9.1,0,17.5,3.6,24,10.2c3.1,3.1,4.2,4.8,6.3,9.4h-13.5c-3.1-3.6-5.4-5.3-8.8-6.7c-2.6-1.1-5.9-1.8-8.5-1.8
		c-11.2,0-20.9,10.3-20.9,22.2c0,12,9.8,22.3,21.3,22.3C335.2,94.8,339.7,92.6,345.2,86.8z"/>
	<path class="st2" d="M369.6,104.6V40.5h11.9v64.1H369.6z"/>
	<path class="st2" d="M396.1,104.6V40.5h32.7v11.2H408v15.6h20.8v11.2H408v26.3H396.1z"/>
	<path class="st2" d="M439.9,104.6V40.5h11.9v64.1H439.9z"/>
	<path class="st2" d="M512.8,86.8h13.7c-4.8,11.4-16.7,19-29.6,19c-18.3,0-33.5-15.2-33.5-33.6c0-18.1,15-33.1,33.2-33.1
		c9.1,0,17.5,3.6,24,10.2c3.1,3.1,4.2,4.8,6.2,9.4h-13.5c-3.1-3.6-5.4-5.3-8.7-6.7c-2.6-1.1-5.9-1.8-8.5-1.8
		c-11.3,0-20.9,10.3-20.9,22.2c0,12,9.8,22.3,21.3,22.3C502.8,94.8,507.3,92.6,512.8,86.8z"/>
	<path class="st2" d="M281.2,104.6h13.2l-26.9-64.1h-9.3l-26.6,64.1h13.1l5.9-13.8h25L281.2,104.6z M262.9,57.3l7.8,22.5h-15.7
		L262.9,57.3z"/>
	<path class="st2" d="M578.3,104.6h13.2l-26.9-64.1h-9.3l-26.6,64.1h13.1l5.9-13.8h25L578.3,104.6z M559.9,57.3l7.8,22.5H552
		L559.9,57.3z"/>
</g>
</svg>
